<?xml version="1.0" standalone="no"?>
<!DOCTYPE svg PUBLIC "-//W3C//DTD SVG 20010904//EN"
 "http://www.w3.org/TR/2001/REC-SVG-20010904/DTD/svg10.dtd">
<svg version="1.0" xmlns="http://www.w3.org/2000/svg"
 width="848.000000pt" height="232.000000pt" viewBox="0 0 848.000000 232.000000"
 preserveAspectRatio="xMidYMid meet">
<metadata>
Created by potrace 1.15, written by Peter Selinger 2001-2017
</metadata>
<g transform="translate(0.000000,232.000000) scale(0.100000,-0.100000)"
fill="#000000" stroke="none">
<path d="M3134 963 l-109 -76 -60 23 c-33 12 -69 24 -80 27 -13 3 -77 -34
-194 -110 l-175 -115 -55 41 c-39 29 -75 45 -126 57 -56 13 -86 28 -147 73
-42 31 -81 57 -86 57 -5 0 -48 -27 -95 -60 -80 -55 -308 -190 -322 -190 -15 0
-237 179 -306 247 l-76 75 -52 -26 -52 -27 -62 27 c-34 14 -73 30 -87 36 -21
8 -47 0 -170 -56 -136 -61 -145 -67 -153 -98 -22 -91 -18 -481 5 -504 2 -2 44
4 93 12 135 22 324 29 445 15 142 -17 262 -40 615 -122 389 -89 508 -109 690
-116 215 -8 423 22 620 89 93 32 234 108 253 136 14 22 17 55 17 222 0 118 -5
223 -13 266 -11 61 -17 71 -40 81 -15 6 -59 30 -98 52 l-72 40 -108 -76z"/>
</g>
</svg>
